<svg width="219" height="73" viewBox="0 0 219 73" fill="none" xmlns="http://www.w3.org/2000/svg">
<rect width="219" height="73" fill="#F2F3F3"/>
<rect x="16" y="12" width="77" height="50" fill="#39A7FF"/>
<path d="M110.785 22.1406C110.785 15.9375 113.223 12.8359 118.098 12.8359C120.027 12.8359 121.531 13.2383 122.609 14.043C123.695 14.8398 124.441 15.918 124.848 17.2773C125.262 18.6289 125.469 20.25 125.469 22.1406C125.469 24.9219 124.898 27.1328 123.758 28.7734C122.617 30.4141 120.73 31.2344 118.098 31.2344C115.449 31.2344 113.566 30.4219 112.449 28.7969C111.34 27.1719 110.785 24.9531 110.785 22.1406ZM118.684 27.4961C119.324 27.4961 119.691 27.4609 119.785 27.3906C119.98 27.0469 120.129 26.4492 120.23 25.5977C120.332 24.7383 120.383 23.7773 120.383 22.7148C120.383 21.5977 120.328 20.5625 120.219 19.6094C120.117 18.6484 119.973 17.9766 119.785 17.5938C119.59 17.4375 119.301 17.3203 118.918 17.2422C118.535 17.1641 118.113 17.1211 117.652 17.1133C117.387 17.1133 117.145 17.1289 116.926 17.1602C116.715 17.1836 116.562 17.2227 116.469 17.2773C116.242 17.668 116.074 18.2344 115.965 18.9766C115.863 19.7109 115.812 20.5508 115.812 21.4961C115.812 22.5664 115.871 23.6328 115.988 24.6953C116.105 25.7578 116.25 26.5703 116.422 27.1328C116.531 27.25 116.809 27.3398 117.254 27.4023C117.699 27.4648 118.176 27.4961 118.684 27.4961ZM127.109 24.2383C127.109 23.0508 127.273 21.9141 127.602 20.8281C127.938 19.7422 128.461 18.8516 129.172 18.1562C129.891 17.4609 130.793 17.1133 131.879 17.1133C133.098 17.1133 134.262 17.5 135.371 18.2734L135.559 18.1562C135.535 17.2422 135.422 16.4141 135.219 15.6719L132.84 15.5195C132.73 15.3789 132.645 15.1719 132.582 14.8984C132.52 14.6172 132.488 14.3281 132.488 14.0312C132.488 13.6328 132.535 13.2891 132.629 13C133.098 12.6641 133.699 12.4102 134.434 12.2383C135.168 12.0664 135.902 11.9805 136.637 11.9805C137.449 11.9805 138.062 12.1523 138.477 12.4961C138.891 12.832 139.168 13.3438 139.309 14.0312C139.457 14.7109 139.531 15.6562 139.531 16.8672C139.531 18.4609 139.465 20.2695 139.332 22.293C139.199 24.3164 139.027 25.9688 138.816 27.25L138.77 27.4492L140.129 26.8633C140.355 27.1055 140.555 27.4023 140.727 27.7539C140.906 28.0977 141.02 28.4961 141.066 28.9492C140.957 29.1836 140.719 29.4844 140.352 29.8516C139.984 30.2109 139.535 30.5312 139.004 30.8125C138.473 31.0938 137.918 31.2344 137.34 31.2344C136.691 31.2344 136.191 31.043 135.84 30.6602C135.496 30.2695 135.324 29.7734 135.324 29.1719C135.324 29.0156 135.363 28.6953 135.441 28.2109C135.527 27.7266 135.598 27.3906 135.652 27.2031L135.301 27.0977C134.902 28.4961 134.375 29.5352 133.719 30.2148C133.062 30.8945 132.25 31.2344 131.281 31.2344C130.242 31.2344 129.41 30.8906 128.785 30.2031C128.168 29.5078 127.734 28.6367 127.484 27.5898C127.234 26.543 127.109 25.4258 127.109 24.2383ZM135.148 24.0273C135.195 23.7461 135.219 23.418 135.219 23.043C135.219 22.8008 135.207 22.5703 135.184 22.3516C135.168 22.1328 135.148 21.9766 135.125 21.8828C134.812 21.6562 134.457 21.4961 134.059 21.4023C133.668 21.3086 133.309 21.2617 132.98 21.2617C132.777 21.2617 132.559 21.2812 132.324 21.3203C132.168 21.4766 132.043 21.8164 131.949 22.3398C131.855 22.8555 131.809 23.4375 131.809 24.0859C131.809 24.7812 131.855 25.457 131.949 26.1133C132.051 26.7617 132.191 27.2695 132.371 27.6367C132.496 27.6367 132.738 27.4453 133.098 27.0625C133.465 26.6719 133.844 26.1953 134.234 25.6328C134.625 25.0625 134.93 24.5273 135.148 24.0273ZM142.402 14.1836C142.402 13.4961 142.625 12.9375 143.07 12.5078C143.523 12.0781 144.242 11.8633 145.227 11.8633C146.211 11.8633 146.926 12.0781 147.371 12.5078C147.824 12.9375 148.051 13.4961 148.051 14.1836C148.051 14.5742 147.914 14.9336 147.641 15.2617C147.375 15.5898 147.023 15.8516 146.586 16.0469C146.148 16.2344 145.695 16.3281 145.227 16.3281C144.719 16.3281 144.246 16.2188 143.809 16C143.379 15.7734 143.035 15.4922 142.777 15.1562C142.527 14.8203 142.402 14.4961 142.402 14.1836ZM141.828 20.8867C141.727 20.5039 141.656 20.1562 141.617 19.8438C141.578 19.5234 141.559 19.1914 141.559 18.8477L141.57 18.5195C141.734 18.3086 141.988 18.0977 142.332 17.8867C142.684 17.668 143.09 17.4844 143.551 17.3359C144.02 17.1875 144.504 17.1133 145.004 17.1133C146.098 17.1133 146.875 17.3594 147.336 17.8516C147.797 18.3438 148.027 19.1094 148.027 20.1484C148.027 20.7734 147.938 21.5898 147.758 22.5977C147.586 23.6055 147.375 24.5859 147.125 25.5391C146.883 26.4844 146.672 27.1602 146.492 27.5664L146.516 27.5898L148.25 26.957C148.562 27.2227 148.797 27.5156 148.953 27.8359C149.117 28.1562 149.223 28.5273 149.27 28.9492C149.27 29.0039 149.098 29.2305 148.754 29.6289C148.41 30.0195 147.953 30.3867 147.383 30.7305C146.82 31.0664 146.168 31.2344 145.426 31.2344C144.676 31.2344 144.066 31.0312 143.598 30.625C143.137 30.2188 142.906 29.5234 142.906 28.5391C142.906 27.3906 142.938 26.1719 143 24.8828C143.062 23.5938 143.16 22.3438 143.293 21.1328L141.828 20.8867ZM151.449 27.8594C151.449 27.5234 151.457 26.6992 151.473 25.3867C151.496 22.8086 151.508 21.3984 151.508 21.1562L150.43 20.9805C150.281 20.5352 150.176 20.1172 150.113 19.7266C150.051 19.3359 150.02 18.9414 150.02 18.543C150.02 18.3789 150.023 18.2539 150.031 18.168C150.164 18.0508 150.371 17.9102 150.652 17.7461C150.934 17.582 151.266 17.4375 151.648 17.3125C152.031 17.1797 152.422 17.1133 152.82 17.1133C153.75 17.1133 154.422 17.3203 154.836 17.7344C155.258 18.1484 155.469 18.7539 155.469 19.5508C155.469 20.0352 155.406 20.6562 155.281 21.4141C155.164 22.1641 155.043 22.6992 154.918 23.0195L155.34 23.0898L156.043 20.4414C156.355 19.2461 156.746 18.3945 157.215 17.8867C157.684 17.3711 158.211 17.1133 158.797 17.1133C159.18 17.1133 159.559 17.1719 159.934 17.2891C160.316 17.4062 160.609 17.5508 160.812 17.7227C161.031 18.207 161.141 18.8516 161.141 19.6562C161.141 20.2188 161.086 20.7773 160.977 21.332C160.867 21.8789 160.727 22.3203 160.555 22.6562L158.094 22.3281C157.594 22.8594 157.062 23.5977 156.5 24.543C155.938 25.4805 155.488 26.3438 155.152 27.1328L155.141 27.7422L157.414 27.2031C157.797 27.7891 158.02 28.4844 158.082 29.2891C158.082 29.3359 157.906 29.5273 157.555 29.8633C157.203 30.1992 156.738 30.5117 156.16 30.8008C155.59 31.082 154.934 31.2227 154.191 31.2227C153.426 31.2227 152.785 31.0195 152.27 30.6133C151.762 30.1992 151.492 29.5039 151.461 28.5273C151.453 28.4102 151.449 28.1875 151.449 27.8594ZM162.535 14.1836C162.535 13.4961 162.758 12.9375 163.203 12.5078C163.656 12.0781 164.375 11.8633 165.359 11.8633C166.344 11.8633 167.059 12.0781 167.504 12.5078C167.957 12.9375 168.184 13.4961 168.184 14.1836C168.184 14.5742 168.047 14.9336 167.773 15.2617C167.508 15.5898 167.156 15.8516 166.719 16.0469C166.281 16.2344 165.828 16.3281 165.359 16.3281C164.852 16.3281 164.379 16.2188 163.941 16C163.512 15.7734 163.168 15.4922 162.91 15.1562C162.66 14.8203 162.535 14.4961 162.535 14.1836ZM161.961 20.8867C161.859 20.5039 161.789 20.1562 161.75 19.8438C161.711 19.5234 161.691 19.1914 161.691 18.8477L161.703 18.5195C161.867 18.3086 162.121 18.0977 162.465 17.8867C162.816 17.668 163.223 17.4844 163.684 17.3359C164.152 17.1875 164.637 17.1133 165.137 17.1133C166.23 17.1133 167.008 17.3594 167.469 17.8516C167.93 18.3438 168.16 19.1094 168.16 20.1484C168.16 20.7734 168.07 21.5898 167.891 22.5977C167.719 23.6055 167.508 24.5859 167.258 25.5391C167.016 26.4844 166.805 27.1602 166.625 27.5664L166.648 27.5898L168.383 26.957C168.695 27.2227 168.93 27.5156 169.086 27.8359C169.25 28.1562 169.355 28.5273 169.402 28.9492C169.402 29.0039 169.23 29.2305 168.887 29.6289C168.543 30.0195 168.086 30.3867 167.516 30.7305C166.953 31.0664 166.301 31.2344 165.559 31.2344C164.809 31.2344 164.199 31.0312 163.73 30.625C163.27 30.2188 163.039 29.5234 163.039 28.5391C163.039 27.3906 163.07 26.1719 163.133 24.8828C163.195 23.5938 163.293 22.3438 163.426 21.1328L161.961 20.8867ZM170.082 15.6719C169.965 15.1953 169.887 14.8008 169.848 14.4883C169.809 14.168 169.793 13.8008 169.801 13.3867C169.965 13.1758 170.219 12.9648 170.562 12.7539C170.914 12.5352 171.32 12.3516 171.781 12.2031C172.25 12.0547 172.734 11.9805 173.234 11.9805C174.211 11.9805 174.961 12.2266 175.484 12.7188C176.008 13.2109 176.27 13.9375 176.27 14.8984C176.27 15.5859 176.211 16.6914 176.094 18.2148C175.977 19.7383 175.809 21.3594 175.59 23.0781C175.371 24.7891 175.121 26.2852 174.84 27.5664L174.863 27.5898L176.598 26.8633C177.207 27.3867 177.562 28.082 177.664 28.9492C177.664 29.0039 177.488 29.2305 177.137 29.6289C176.785 30.0195 176.32 30.3867 175.742 30.7305C175.172 31.0664 174.516 31.2344 173.773 31.2344C173 31.2344 172.371 31.0195 171.887 30.5898C171.41 30.1602 171.184 29.4258 171.207 28.3867L171.23 26.2773C171.238 24.2773 171.258 22.4766 171.289 20.875C171.328 19.2734 171.406 17.6211 171.523 15.918L170.082 15.6719ZM178.613 24.1914C178.613 22.8398 178.84 21.6328 179.293 20.5703C179.746 19.5078 180.445 18.668 181.391 18.0508C182.344 17.4258 183.531 17.1133 184.953 17.1133C185.695 17.1133 186.438 17.2031 187.18 17.3828C187.922 17.5547 188.551 17.8438 189.066 18.25C189.543 18.6328 189.887 19.1406 190.098 19.7734C190.316 20.3984 190.426 21.0938 190.426 21.8594C190.426 22.3672 190.383 22.8867 190.297 23.418C190.203 23.5742 190.02 23.7812 189.746 24.0391C189.473 24.2891 189.152 24.5352 188.785 24.7773C188.418 25.0195 188.062 25.207 187.719 25.3398C187.391 25.3633 187.051 25.375 186.699 25.375C186.082 25.375 185.457 25.3477 184.824 25.293C184.191 25.2383 183.637 25.1758 183.16 25.1055C183.223 25.7695 183.426 26.3477 183.77 26.8398C184.113 27.332 184.66 27.5781 185.41 27.5781C185.48 27.5781 185.594 27.5703 185.75 27.5547C186.227 27.5078 186.781 27.3828 187.414 27.1797C188.055 26.9688 188.691 26.7266 189.324 26.4531C189.621 26.75 189.84 27.0469 189.98 27.3438C190.121 27.6406 190.219 28.0664 190.273 28.6211C190.031 28.9023 189.637 29.2461 189.09 29.6523C188.551 30.0586 187.891 30.4258 187.109 30.7539C186.328 31.0742 185.512 31.2344 184.66 31.2344C183.379 31.2344 182.281 30.9258 181.367 30.3086C180.461 29.6836 179.773 28.8398 179.305 27.7773C178.844 26.707 178.613 25.5117 178.613 24.1914ZM186.16 21.4961C186.051 21.3789 185.867 21.2891 185.609 21.2266C185.352 21.1562 185.082 21.1211 184.801 21.1211C184.574 21.1211 184.344 21.1406 184.109 21.1797C183.883 21.2188 183.746 21.2617 183.699 21.3086C183.434 21.832 183.266 22.4258 183.195 23.0898L186.324 22.7852L186.16 21.4961ZM113.363 55.9609C112.801 53.6406 112.305 51.6992 111.875 50.1367C111.445 48.5664 111.102 47.5898 110.844 47.207L109.672 47.125C109.445 46.5312 109.285 45.8008 109.191 44.9336C109.324 44.5039 109.574 44.1328 109.941 43.8203C110.309 43.5 110.738 43.2578 111.23 43.0938C111.723 42.9297 112.219 42.8477 112.719 42.8477C113.859 42.8477 114.711 43.3711 115.273 44.418C115.531 44.8945 115.75 45.4688 115.93 46.1406C116.109 46.8047 116.277 47.5938 116.434 48.5078C116.691 50.0469 116.871 51.4297 116.973 52.6562C117.074 53.875 117.156 55.1719 117.219 56.5469L117.266 57.6016H117.441C117.637 57.1719 117.852 56.2461 118.086 54.8242C118.32 53.4023 118.523 51.8984 118.695 50.3125C118.867 48.7188 118.961 47.5352 118.977 46.7617L117.5 46.5391C117.391 46.125 117.32 45.7539 117.289 45.4258C117.258 45.0977 117.242 44.6992 117.242 44.2305C117.406 44.0273 117.68 43.8164 118.062 43.5977C118.445 43.3789 118.891 43.1953 119.398 43.0469C119.906 42.8984 120.41 42.8242 120.91 42.8242C121.582 42.8242 122.188 42.9375 122.727 43.1641C123.273 43.3828 123.707 43.7109 124.027 44.1484C124.355 44.5859 124.523 45.1211 124.531 45.7539V47.5586C124.883 48.9258 125.188 50.5312 125.445 52.375C125.711 54.2109 125.906 55.9492 126.031 57.5898H126.16C126.348 57.1523 126.559 56.2227 126.793 54.8008C127.035 53.3711 127.246 51.8672 127.426 50.2891C127.605 48.7031 127.699 47.5273 127.707 46.7617L126.324 46.5391C126.215 46.125 126.145 45.7539 126.113 45.4258C126.082 45.0977 126.066 44.6992 126.066 44.2305C126.223 44.0273 126.496 43.8164 126.887 43.5977C127.277 43.3789 127.727 43.1953 128.234 43.0469C128.75 42.8984 129.258 42.8242 129.758 42.8242C130.781 42.8242 131.547 43.0898 132.055 43.6211C132.562 44.1523 132.816 44.9609 132.816 46.0469C132.816 47.0781 132.645 48.4062 132.301 50.0312C131.957 51.6562 131.527 53.1836 131.012 54.6133C130.566 55.8633 130.129 56.9453 129.699 57.8594C129.27 58.7656 128.738 59.6562 128.105 60.5312C127.848 60.7969 127.508 60.9805 127.086 61.082C126.672 61.1836 126.242 61.2344 125.797 61.2344C124.258 61.2344 123.121 60.9375 122.387 60.3438L122.703 57.9414L121.941 53.9922C121.762 52.9531 121.645 52.125 121.59 51.5078L121.438 51.4961L121.402 52.9844C121.145 54.5156 120.828 55.9375 120.453 57.25C120.086 58.5547 119.664 59.6484 119.188 60.5312C118.961 60.7891 118.648 60.9688 118.25 61.0703C117.852 61.1797 117.445 61.2344 117.031 61.2344C115.43 61.2344 114.301 60.9414 113.645 60.3555L113.902 58.1523L113.363 55.9609ZM134.387 44.1836C134.387 43.4961 134.609 42.9375 135.055 42.5078C135.508 42.0781 136.227 41.8633 137.211 41.8633C138.195 41.8633 138.91 42.0781 139.355 42.5078C139.809 42.9375 140.035 43.4961 140.035 44.1836C140.035 44.5742 139.898 44.9336 139.625 45.2617C139.359 45.5898 139.008 45.8516 138.57 46.0469C138.133 46.2344 137.68 46.3281 137.211 46.3281C136.703 46.3281 136.23 46.2188 135.793 46C135.363 45.7734 135.02 45.4922 134.762 45.1562C134.512 44.8203 134.387 44.4961 134.387 44.1836ZM133.812 50.8867C133.711 50.5039 133.641 50.1562 133.602 49.8438C133.562 49.5234 133.543 49.1914 133.543 48.8477L133.555 48.5195C133.719 48.3086 133.973 48.0977 134.316 47.8867C134.668 47.668 135.074 47.4844 135.535 47.3359C136.004 47.1875 136.488 47.1133 136.988 47.1133C138.082 47.1133 138.859 47.3594 139.32 47.8516C139.781 48.3438 140.012 49.1094 140.012 50.1484C140.012 50.7734 139.922 51.5898 139.742 52.5977C139.57 53.6055 139.359 54.5859 139.109 55.5391C138.867 56.4844 138.656 57.1602 138.477 57.5664L138.5 57.5898L140.234 56.957C140.547 57.2227 140.781 57.5156 140.938 57.8359C141.102 58.1562 141.207 58.5273 141.254 58.9492C141.254 59.0039 141.082 59.2305 140.738 59.6289C140.395 60.0195 139.938 60.3867 139.367 60.7305C138.805 61.0664 138.152 61.2344 137.41 61.2344C136.66 61.2344 136.051 61.0312 135.582 60.625C135.121 60.2188 134.891 59.5234 134.891 58.5391C134.891 57.3906 134.922 56.1719 134.984 54.8828C135.047 53.5938 135.145 52.3438 135.277 51.1328L133.812 50.8867ZM141.934 45.6719C141.816 45.1953 141.738 44.8008 141.699 44.4883C141.66 44.168 141.645 43.8008 141.652 43.3867C141.816 43.1758 142.07 42.9648 142.414 42.7539C142.766 42.5352 143.172 42.3516 143.633 42.2031C144.102 42.0547 144.586 41.9805 145.086 41.9805C146.062 41.9805 146.812 42.2266 147.336 42.7188C147.859 43.2109 148.121 43.9375 148.121 44.8984C148.121 45.5859 148.062 46.6914 147.945 48.2148C147.828 49.7383 147.66 51.3594 147.441 53.0781C147.223 54.7891 146.973 56.2852 146.691 57.5664L146.715 57.5898L148.449 56.8633C149.059 57.3867 149.414 58.082 149.516 58.9492C149.516 59.0039 149.34 59.2305 148.988 59.6289C148.637 60.0195 148.172 60.3867 147.594 60.7305C147.023 61.0664 146.367 61.2344 145.625 61.2344C144.852 61.2344 144.223 61.0195 143.738 60.5898C143.262 60.1602 143.035 59.4258 143.059 58.3867L143.082 56.2773C143.09 54.2773 143.109 52.4766 143.141 50.875C143.18 49.2734 143.258 47.6211 143.375 45.918L141.934 45.6719ZM151.59 56.8633C152.277 57.1367 152.828 57.3477 153.242 57.4961C153.656 57.6445 154.109 57.7734 154.602 57.8828C155.102 57.9922 155.598 58.0469 156.09 58.0469C156.309 58.0469 156.465 58.0273 156.559 57.9883C156.582 57.957 156.602 57.9102 156.617 57.8477C156.641 57.7773 156.652 57.707 156.652 57.6367C156.652 57.4805 156.562 57.3516 156.383 57.25C156.102 57.0938 155.602 56.8477 154.883 56.5117C153.898 56.043 153.117 55.625 152.539 55.2578C151.969 54.8906 151.484 54.4023 151.086 53.793C150.695 53.1836 150.5 52.418 150.5 51.4961C150.5 50.1758 150.895 49.1172 151.684 48.3203C152.473 47.5156 153.723 47.1133 155.434 47.1133C157.473 47.1133 159.059 47.3789 160.191 47.9102C160.246 48.1367 160.273 48.4219 160.273 48.7656C160.273 49.4219 160.172 50.0938 159.969 50.7812C159.766 51.4609 159.5 51.9648 159.172 52.293C158.727 52.1445 158.098 51.9062 157.285 51.5781C156.691 51.3438 156.219 51.1641 155.867 51.0391C155.523 50.9062 155.207 50.8125 154.918 50.7578C154.762 50.7969 154.637 50.8906 154.543 51.0391C154.449 51.1797 154.402 51.3477 154.402 51.543C154.402 51.7148 154.453 51.8594 154.555 51.9766C154.656 52.0938 154.77 52.1875 154.895 52.2578C155.027 52.3203 155.215 52.4062 155.457 52.5156C155.582 52.5703 155.699 52.6211 155.809 52.668C155.918 52.707 156.02 52.7461 156.113 52.7852C156.723 53.043 157.203 53.2539 157.555 53.418C157.906 53.582 158.246 53.7773 158.574 54.0039C159.176 54.418 159.648 54.8906 159.992 55.4219C160.336 55.9531 160.508 56.5352 160.508 57.168C160.508 58.043 160.258 58.8008 159.758 59.4414C159.266 60.0742 158.633 60.5352 157.859 60.8242C157.453 60.9727 157.008 61.0781 156.523 61.1406C156.047 61.2109 155.488 61.2461 154.848 61.2461C154.09 61.2461 153.309 61.1016 152.504 60.8125C151.707 60.5156 151.098 60.0234 150.676 59.3359C150.684 58.8594 150.746 58.4453 150.863 58.0938C150.988 57.7344 151.23 57.3242 151.59 56.8633ZM161.809 54.0742C161.809 52.6602 162.035 51.4336 162.488 50.3945C162.941 49.3555 163.637 48.5508 164.574 47.9805C165.512 47.4023 166.688 47.1133 168.102 47.1133C169.664 47.1133 170.891 47.4062 171.781 47.9922C172.672 48.5703 173.293 49.375 173.645 50.4062C174.004 51.4375 174.184 52.6992 174.184 54.1914C174.184 55.543 173.945 56.75 173.469 57.8125C173 58.8672 172.289 59.7031 171.336 60.3203C170.391 60.9297 169.23 61.2344 167.855 61.2344C165.73 61.2344 164.191 60.582 163.238 59.2773C162.285 57.9648 161.809 56.2305 161.809 54.0742ZM168.336 57.8008C168.734 57.8008 168.977 57.7695 169.062 57.707C169.242 57.3945 169.379 56.9531 169.473 56.3828C169.566 55.8125 169.613 55.1953 169.613 54.5312C169.613 53.9219 169.574 53.3516 169.496 52.8203C169.418 52.2812 169.309 51.8594 169.168 51.5547C169.082 51.4531 168.91 51.3789 168.652 51.332C168.395 51.2773 168.113 51.25 167.809 51.25C167.41 51.25 167.137 51.293 166.988 51.3789C166.598 52.0508 166.402 52.9844 166.402 54.1797C166.402 54.7422 166.445 55.3164 166.531 55.9023C166.617 56.4883 166.727 57.0195 166.859 57.4961C166.953 57.5977 167.145 57.6758 167.434 57.7305C167.723 57.7773 168.023 57.8008 168.336 57.8008ZM176.879 56.9219C176.879 55.6484 176.895 54.6875 176.926 54.0391C176.957 53.3828 177.039 52.4219 177.172 51.1562L175.812 50.9805C175.648 50.4727 175.539 50.0195 175.484 49.6211C175.438 49.2227 175.414 48.707 175.414 48.0742C175.539 47.9648 175.746 47.8359 176.035 47.6875C176.332 47.5312 176.684 47.3984 177.09 47.2891C177.496 47.1719 177.906 47.1133 178.32 47.1133C179.266 47.1133 179.934 47.3164 180.324 47.7227C180.723 48.1289 180.922 48.7383 180.922 49.5508C180.922 50.0039 180.855 50.6172 180.723 51.3906C180.504 52.6328 180.395 53.2852 180.395 53.3477C180.395 53.3867 180.422 53.4258 180.477 53.4648C180.531 53.4961 180.59 53.5117 180.652 53.5117C180.723 53.5117 180.77 53.4844 180.793 53.4297C181.105 52.1875 181.418 51.1484 181.73 50.3125C182.043 49.4766 182.516 48.7344 183.148 48.0859C183.781 47.4375 184.602 47.1133 185.609 47.1133C186.859 47.1133 187.758 47.4961 188.305 48.2617C188.852 49.0195 189.125 49.9766 189.125 51.1328C189.125 52.1641 189.004 53.1602 188.762 54.1211C188.52 55.0742 188.219 56.0703 187.859 57.1094C187.875 57.0703 187.82 57.2227 187.695 57.5664L187.719 57.5898L189.43 56.8867C190.039 57.4102 190.395 58.1055 190.496 58.9727C190.496 59.0273 190.32 59.25 189.969 59.6406C189.625 60.0312 189.168 60.3945 188.598 60.7305C188.027 61.0664 187.371 61.2344 186.629 61.2344C185.887 61.2344 185.281 61.0352 184.812 60.6367C184.344 60.2383 184.109 59.5586 184.109 58.5977C184.109 57.832 184.141 56.8086 184.203 55.5273C184.266 54.2461 184.328 53.2148 184.391 52.4336C184.188 52.2148 183.938 52.0977 183.641 52.082C183.367 52.4336 182.965 53.1367 182.434 54.1914C181.902 55.2461 181.527 56.0352 181.309 56.5586C181.293 56.668 181.285 56.7734 181.285 56.875C181.285 57.2656 181.344 57.793 181.461 58.457C181.578 59.1133 181.723 59.7266 181.895 60.2969C181.754 60.5625 181.465 60.7852 181.027 60.9648C180.59 61.1445 180.051 61.2344 179.41 61.2344C178.832 61.2344 178.367 61.1875 178.016 61.0938C177.672 61 177.43 60.9023 177.289 60.8008C177.148 60.6914 177.078 60.625 177.078 60.6016C177.07 60.5312 177.051 60.3477 177.02 60.0508C176.988 59.7461 176.957 59.3242 176.926 58.7852C176.895 58.2383 176.879 57.6172 176.879 56.9219Z" fill="#39A7FF"/>
<path d="M35.6211 37.1406C35.6211 30.9375 38.0586 27.8359 42.9336 27.8359C44.8633 27.8359 46.3672 28.2383 47.4453 29.043C48.5312 29.8398 49.2773 30.918 49.6836 32.2773C50.0977 33.6289 50.3047 35.25 50.3047 37.1406C50.3047 39.9219 49.7344 42.1328 48.5938 43.7734C47.4531 45.4141 45.5664 46.2344 42.9336 46.2344C40.2852 46.2344 38.4023 45.4219 37.2852 43.7969C36.1758 42.1719 35.6211 39.9531 35.6211 37.1406ZM43.5195 42.4961C44.1602 42.4961 44.5273 42.4609 44.6211 42.3906C44.8164 42.0469 44.9648 41.4492 45.0664 40.5977C45.168 39.7383 45.2188 38.7773 45.2188 37.7148C45.2188 36.5977 45.1641 35.5625 45.0547 34.6094C44.9531 33.6484 44.8086 32.9766 44.6211 32.5938C44.4258 32.4375 44.1367 32.3203 43.7539 32.2422C43.3711 32.1641 42.9492 32.1211 42.4883 32.1133C42.2227 32.1133 41.9805 32.1289 41.7617 32.1602C41.5508 32.1836 41.3984 32.2227 41.3047 32.2773C41.0781 32.668 40.9102 33.2344 40.8008 33.9766C40.6992 34.7109 40.6484 35.5508 40.6484 36.4961C40.6484 37.5664 40.707 38.6328 40.8242 39.6953C40.9414 40.7578 41.0859 41.5703 41.2578 42.1328C41.3672 42.25 41.6445 42.3398 42.0898 42.4023C42.5352 42.4648 43.0117 42.4961 43.5195 42.4961ZM54.4648 40.9609C53.9023 38.6406 53.4062 36.6992 52.9766 35.1367C52.5469 33.5664 52.2031 32.5898 51.9453 32.207L50.7734 32.125C50.5469 31.5312 50.3867 30.8008 50.293 29.9336C50.4258 29.5039 50.6758 29.1328 51.043 28.8203C51.4102 28.5 51.8398 28.2578 52.332 28.0938C52.8242 27.9297 53.3203 27.8477 53.8203 27.8477C54.9609 27.8477 55.8125 28.3711 56.375 29.418C56.6328 29.8945 56.8516 30.4688 57.0312 31.1406C57.2109 31.8047 57.3789 32.5938 57.5352 33.5078C57.793 35.0469 57.9727 36.4297 58.0742 37.6562C58.1758 38.875 58.2578 40.1719 58.3203 41.5469L58.3672 42.6016H58.543C58.7383 42.1719 58.9531 41.2461 59.1875 39.8242C59.4219 38.4023 59.625 36.8984 59.7969 35.3125C59.9688 33.7188 60.0625 32.5352 60.0781 31.7617L58.6016 31.5391C58.4922 31.125 58.4219 30.7539 58.3906 30.4258C58.3594 30.0977 58.3438 29.6992 58.3438 29.2305C58.5078 29.0273 58.7812 28.8164 59.1641 28.5977C59.5469 28.3789 59.9922 28.1953 60.5 28.0469C61.0078 27.8984 61.5117 27.8242 62.0117 27.8242C62.6836 27.8242 63.2891 27.9375 63.8281 28.1641C64.375 28.3828 64.8086 28.7109 65.1289 29.1484C65.457 29.5859 65.625 30.1211 65.6328 30.7539V32.5586C65.9844 33.9258 66.2891 35.5312 66.5469 37.375C66.8125 39.2109 67.0078 40.9492 67.1328 42.5898H67.2617C67.4492 42.1523 67.6602 41.2227 67.8945 39.8008C68.1367 38.3711 68.3477 36.8672 68.5273 35.2891C68.707 33.7031 68.8008 32.5273 68.8086 31.7617L67.4258 31.5391C67.3164 31.125 67.2461 30.7539 67.2148 30.4258C67.1836 30.0977 67.168 29.6992 67.168 29.2305C67.3242 29.0273 67.5977 28.8164 67.9883 28.5977C68.3789 28.3789 68.8281 28.1953 69.3359 28.0469C69.8516 27.8984 70.3594 27.8242 70.8594 27.8242C71.8828 27.8242 72.6484 28.0898 73.1562 28.6211C73.6641 29.1523 73.918 29.9609 73.918 31.0469C73.918 32.0781 73.7461 33.4062 73.4023 35.0312C73.0586 36.6562 72.6289 38.1836 72.1133 39.6133C71.668 40.8633 71.2305 41.9453 70.8008 42.8594C70.3711 43.7656 69.8398 44.6562 69.207 45.5312C68.9492 45.7969 68.6094 45.9805 68.1875 46.082C67.7734 46.1836 67.3438 46.2344 66.8984 46.2344C65.3594 46.2344 64.2227 45.9375 63.4883 45.3438L63.8047 42.9414L63.043 38.9922C62.8633 37.9531 62.7461 37.125 62.6914 36.5078L62.5391 36.4961L62.5039 37.9844C62.2461 39.5156 61.9297 40.9375 61.5547 42.25C61.1875 43.5547 60.7656 44.6484 60.2891 45.5312C60.0625 45.7891 59.75 45.9688 59.3516 46.0703C58.9531 46.1797 58.5469 46.2344 58.1328 46.2344C56.5312 46.2344 55.4023 45.9414 54.7461 45.3555L55.0039 43.1523L54.4648 40.9609Z" fill="white"/>
</svg>
