<svg width="232" height="47" viewBox="0 0 232 47" fill="none" xmlns="http://www.w3.org/2000/svg">
<rect width="232" height="47" rx="23.5" fill="#00ADB5"/>
<g filter="url(#filter0_d_25_10044)">
<path d="M37.688 30.126C36.764 30.126 35.936 29.976 35.204 29.676C34.472 29.376 33.884 28.932 33.44 28.344C33.008 27.756 32.78 27.048 32.756 26.22H36.032C36.08 26.688 36.242 27.048 36.518 27.3C36.794 27.54 37.154 27.66 37.598 27.66C38.054 27.66 38.414 27.558 38.678 27.354C38.942 27.138 39.074 26.844 39.074 26.472C39.074 26.16 38.966 25.902 38.75 25.698C38.546 25.494 38.288 25.326 37.976 25.194C37.676 25.062 37.244 24.912 36.68 24.744C35.864 24.492 35.198 24.24 34.682 23.988C34.166 23.736 33.722 23.364 33.35 22.872C32.978 22.38 32.792 21.738 32.792 20.946C32.792 19.77 33.218 18.852 34.07 18.192C34.922 17.52 36.032 17.184 37.4 17.184C38.792 17.184 39.914 17.52 40.766 18.192C41.618 18.852 42.074 19.776 42.134 20.964H38.804C38.78 20.556 38.63 20.238 38.354 20.01C38.078 19.77 37.724 19.65 37.292 19.65C36.92 19.65 36.62 19.752 36.392 19.956C36.164 20.148 36.05 20.43 36.05 20.802C36.05 21.21 36.242 21.528 36.626 21.756C37.01 21.984 37.61 22.23 38.426 22.494C39.242 22.77 39.902 23.034 40.406 23.286C40.922 23.538 41.366 23.904 41.738 24.384C42.11 24.864 42.296 25.482 42.296 26.238C42.296 26.958 42.11 27.612 41.738 28.2C41.378 28.788 40.85 29.256 40.154 29.604C39.458 29.952 38.636 30.126 37.688 30.126ZM53.6582 24.816C53.6582 25.104 53.6402 25.404 53.6042 25.716H46.6382C46.6862 26.34 46.8842 26.82 47.2322 27.156C47.5922 27.48 48.0302 27.642 48.5462 27.642C49.3142 27.642 49.8482 27.318 50.1482 26.67H53.4242C53.2562 27.33 52.9502 27.924 52.5062 28.452C52.0742 28.98 51.5282 29.394 50.8682 29.694C50.2082 29.994 49.4702 30.144 48.6542 30.144C47.6702 30.144 46.7942 29.934 46.0262 29.514C45.2582 29.094 44.6582 28.494 44.2262 27.714C43.7942 26.934 43.5782 26.022 43.5782 24.978C43.5782 23.934 43.7882 23.022 44.2082 22.242C44.6402 21.462 45.2402 20.862 46.0082 20.442C46.7762 20.022 47.6582 19.812 48.6542 19.812C49.6262 19.812 50.4902 20.016 51.2462 20.424C52.0022 20.832 52.5902 21.414 53.0102 22.17C53.4422 22.926 53.6582 23.808 53.6582 24.816ZM50.5082 24.006C50.5082 23.478 50.3282 23.058 49.9682 22.746C49.6082 22.434 49.1582 22.278 48.6182 22.278C48.1022 22.278 47.6642 22.428 47.3042 22.728C46.9562 23.028 46.7402 23.454 46.6562 24.006H50.5082ZM61.402 19.848C62.578 19.848 63.514 20.232 64.21 21C64.918 21.756 65.272 22.8 65.272 24.132V30H62.212V24.546C62.212 23.874 62.038 23.352 61.69 22.98C61.342 22.608 60.874 22.422 60.286 22.422C59.698 22.422 59.23 22.608 58.882 22.98C58.534 23.352 58.36 23.874 58.36 24.546V30H55.282V19.956H58.36V21.288C58.672 20.844 59.092 20.496 59.62 20.244C60.148 19.98 60.742 19.848 61.402 19.848ZM66.7989 24.96C66.7989 23.928 66.9909 23.022 67.3749 22.242C67.7709 21.462 68.3049 20.862 68.9769 20.442C69.6489 20.022 70.3989 19.812 71.2269 19.812C71.8869 19.812 72.4869 19.95 73.0269 20.226C73.5789 20.502 74.0109 20.874 74.3229 21.342V16.68H77.4009V30H74.3229V28.56C74.0349 29.04 73.6209 29.424 73.0809 29.712C72.5529 30 71.9349 30.144 71.2269 30.144C70.3989 30.144 69.6489 29.934 68.9769 29.514C68.3049 29.082 67.7709 28.476 67.3749 27.696C66.9909 26.904 66.7989 25.992 66.7989 24.96ZM74.3229 24.978C74.3229 24.21 74.1069 23.604 73.6749 23.16C73.2549 22.716 72.7389 22.494 72.1269 22.494C71.5149 22.494 70.9929 22.716 70.5609 23.16C70.1409 23.592 69.9309 24.192 69.9309 24.96C69.9309 25.728 70.1409 26.34 70.5609 26.796C70.9929 27.24 71.5149 27.462 72.1269 27.462C72.7389 27.462 73.2549 27.24 73.6749 26.796C74.1069 26.352 74.3229 25.746 74.3229 24.978ZM97.7522 17.364V30H94.6742V22.422L91.8482 30H89.3642L86.5202 22.404V30H83.4422V17.364H87.0782L90.6242 26.112L94.1342 17.364H97.7522ZM109.434 24.816C109.434 25.104 109.416 25.404 109.38 25.716H102.414C102.462 26.34 102.66 26.82 103.008 27.156C103.368 27.48 103.806 27.642 104.322 27.642C105.09 27.642 105.624 27.318 105.924 26.67H109.2C109.032 27.33 108.726 27.924 108.282 28.452C107.85 28.98 107.304 29.394 106.644 29.694C105.984 29.994 105.246 30.144 104.43 30.144C103.446 30.144 102.57 29.934 101.802 29.514C101.034 29.094 100.434 28.494 100.002 27.714C99.5696 26.934 99.3536 26.022 99.3536 24.978C99.3536 23.934 99.5636 23.022 99.9836 22.242C100.416 21.462 101.016 20.862 101.784 20.442C102.552 20.022 103.434 19.812 104.43 19.812C105.402 19.812 106.266 20.016 107.022 20.424C107.778 20.832 108.366 21.414 108.786 22.17C109.218 22.926 109.434 23.808 109.434 24.816ZM106.284 24.006C106.284 23.478 106.104 23.058 105.744 22.746C105.384 22.434 104.934 22.278 104.394 22.278C103.878 22.278 103.44 22.428 103.08 22.728C102.732 23.028 102.516 23.454 102.432 24.006H106.284ZM115.143 30.144C114.267 30.144 113.487 29.994 112.803 29.694C112.119 29.394 111.579 28.986 111.183 28.47C110.787 27.942 110.565 27.354 110.517 26.706H113.559C113.595 27.054 113.757 27.336 114.045 27.552C114.333 27.768 114.687 27.876 115.107 27.876C115.491 27.876 115.785 27.804 115.989 27.66C116.205 27.504 116.313 27.306 116.313 27.066C116.313 26.778 116.163 26.568 115.863 26.436C115.563 26.292 115.077 26.136 114.405 25.968C113.685 25.8 113.085 25.626 112.605 25.446C112.125 25.254 111.711 24.96 111.363 24.564C111.015 24.156 110.841 23.61 110.841 22.926C110.841 22.35 110.997 21.828 111.309 21.36C111.633 20.88 112.101 20.502 112.713 20.226C113.337 19.95 114.075 19.812 114.927 19.812C116.187 19.812 117.177 20.124 117.897 20.748C118.629 21.372 119.049 22.2 119.157 23.232H116.313C116.265 22.884 116.109 22.608 115.845 22.404C115.593 22.2 115.257 22.098 114.837 22.098C114.477 22.098 114.201 22.17 114.009 22.314C113.817 22.446 113.721 22.632 113.721 22.872C113.721 23.16 113.871 23.376 114.171 23.52C114.483 23.664 114.963 23.808 115.611 23.952C116.355 24.144 116.961 24.336 117.429 24.528C117.897 24.708 118.305 25.008 118.653 25.428C119.013 25.836 119.199 26.388 119.211 27.084C119.211 27.672 119.043 28.2 118.707 28.668C118.383 29.124 117.909 29.484 117.285 29.748C116.673 30.012 115.959 30.144 115.143 30.144ZM125.181 30.144C124.305 30.144 123.525 29.994 122.841 29.694C122.157 29.394 121.617 28.986 121.221 28.47C120.825 27.942 120.603 27.354 120.555 26.706H123.597C123.633 27.054 123.795 27.336 124.083 27.552C124.371 27.768 124.725 27.876 125.145 27.876C125.529 27.876 125.823 27.804 126.027 27.66C126.243 27.504 126.351 27.306 126.351 27.066C126.351 26.778 126.201 26.568 125.901 26.436C125.601 26.292 125.115 26.136 124.443 25.968C123.723 25.8 123.123 25.626 122.643 25.446C122.163 25.254 121.749 24.96 121.401 24.564C121.053 24.156 120.879 23.61 120.879 22.926C120.879 22.35 121.035 21.828 121.347 21.36C121.671 20.88 122.139 20.502 122.751 20.226C123.375 19.95 124.113 19.812 124.965 19.812C126.225 19.812 127.215 20.124 127.935 20.748C128.667 21.372 129.087 22.2 129.195 23.232H126.351C126.303 22.884 126.147 22.608 125.883 22.404C125.631 22.2 125.295 22.098 124.875 22.098C124.515 22.098 124.239 22.17 124.047 22.314C123.855 22.446 123.759 22.632 123.759 22.872C123.759 23.16 123.909 23.376 124.209 23.52C124.521 23.664 125.001 23.808 125.649 23.952C126.393 24.144 126.999 24.336 127.467 24.528C127.935 24.708 128.343 25.008 128.691 25.428C129.051 25.836 129.237 26.388 129.249 27.084C129.249 27.672 129.081 28.2 128.745 28.668C128.421 29.124 127.947 29.484 127.323 29.748C126.711 30.012 125.997 30.144 125.181 30.144ZM130.52 24.96C130.52 23.928 130.712 23.022 131.096 22.242C131.492 21.462 132.026 20.862 132.698 20.442C133.37 20.022 134.12 19.812 134.948 19.812C135.656 19.812 136.274 19.956 136.802 20.244C137.342 20.532 137.756 20.91 138.044 21.378V19.956H141.122V30H138.044V28.578C137.744 29.046 137.324 29.424 136.784 29.712C136.256 30 135.638 30.144 134.93 30.144C134.114 30.144 133.37 29.934 132.698 29.514C132.026 29.082 131.492 28.476 131.096 27.696C130.712 26.904 130.52 25.992 130.52 24.96ZM138.044 24.978C138.044 24.21 137.828 23.604 137.396 23.16C136.976 22.716 136.46 22.494 135.848 22.494C135.236 22.494 134.714 22.716 134.282 23.16C133.862 23.592 133.652 24.192 133.652 24.96C133.652 25.728 133.862 26.34 134.282 26.796C134.714 27.24 135.236 27.462 135.848 27.462C136.46 27.462 136.976 27.24 137.396 26.796C137.828 26.352 138.044 25.746 138.044 24.978ZM147.164 19.812C147.872 19.812 148.49 19.956 149.018 20.244C149.558 20.532 149.972 20.91 150.26 21.378V19.956H153.338V29.982C153.338 30.906 153.152 31.74 152.78 32.484C152.42 33.24 151.862 33.84 151.106 34.284C150.362 34.728 149.432 34.95 148.316 34.95C146.828 34.95 145.622 34.596 144.698 33.888C143.774 33.192 143.246 32.244 143.114 31.044H146.156C146.252 31.428 146.48 31.728 146.84 31.944C147.2 32.172 147.644 32.286 148.172 32.286C148.808 32.286 149.312 32.1 149.684 31.728C150.068 31.368 150.26 30.786 150.26 29.982V28.56C149.96 29.028 149.546 29.412 149.018 29.712C148.49 30 147.872 30.144 147.164 30.144C146.336 30.144 145.586 29.934 144.914 29.514C144.242 29.082 143.708 28.476 143.312 27.696C142.928 26.904 142.736 25.992 142.736 24.96C142.736 23.928 142.928 23.022 143.312 22.242C143.708 21.462 144.242 20.862 144.914 20.442C145.586 20.022 146.336 19.812 147.164 19.812ZM150.26 24.978C150.26 24.21 150.044 23.604 149.612 23.16C149.192 22.716 148.676 22.494 148.064 22.494C147.452 22.494 146.93 22.716 146.498 23.16C146.078 23.592 145.868 24.192 145.868 24.96C145.868 25.728 146.078 26.34 146.498 26.796C146.93 27.24 147.452 27.462 148.064 27.462C148.676 27.462 149.192 27.24 149.612 26.796C150.044 26.352 150.26 25.746 150.26 24.978ZM165.033 24.816C165.033 25.104 165.015 25.404 164.979 25.716H158.013C158.061 26.34 158.259 26.82 158.607 27.156C158.967 27.48 159.405 27.642 159.921 27.642C160.689 27.642 161.223 27.318 161.523 26.67H164.799C164.631 27.33 164.325 27.924 163.881 28.452C163.449 28.98 162.903 29.394 162.243 29.694C161.583 29.994 160.845 30.144 160.029 30.144C159.045 30.144 158.169 29.934 157.401 29.514C156.633 29.094 156.033 28.494 155.601 27.714C155.169 26.934 154.953 26.022 154.953 24.978C154.953 23.934 155.163 23.022 155.583 22.242C156.015 21.462 156.615 20.862 157.383 20.442C158.151 20.022 159.033 19.812 160.029 19.812C161.001 19.812 161.865 20.016 162.621 20.424C163.377 20.832 163.965 21.414 164.385 22.17C164.817 22.926 165.033 23.808 165.033 24.816ZM161.883 24.006C161.883 23.478 161.703 23.058 161.343 22.746C160.983 22.434 160.533 22.278 159.993 22.278C159.477 22.278 159.039 22.428 158.679 22.728C158.331 23.028 158.115 23.454 158.031 24.006H161.883Z" fill="#EEEEEE"/>
</g>
<g filter="url(#filter1_d_25_10044)">
<path d="M198 13.5L187 24.5" stroke="#EEEEEE" stroke-width="2" stroke-linecap="round" stroke-linejoin="round"/>
<path d="M198 13.5L191 33.5L187 24.5L178 20.5L198 13.5Z" stroke="#EEEEEE" stroke-width="2" stroke-linecap="round" stroke-linejoin="round"/>
</g>
<defs>
<filter id="filter0_d_25_10044" x="28.756" y="16.6799" width="140.277" height="26.27" filterUnits="userSpaceOnUse" color-interpolation-filters="sRGB">
<feFlood flood-opacity="0" result="BackgroundImageFix"/>
<feColorMatrix in="SourceAlpha" type="matrix" values="0 0 0 0 0 0 0 0 0 0 0 0 0 0 0 0 0 0 127 0" result="hardAlpha"/>
<feOffset dy="4"/>
<feGaussianBlur stdDeviation="2"/>
<feComposite in2="hardAlpha" operator="out"/>
<feColorMatrix type="matrix" values="0 0 0 0 0 0 0 0 0 0 0 0 0 0 0 0 0 0 0.5 0"/>
<feBlend mode="normal" in2="BackgroundImageFix" result="effect1_dropShadow_25_10044"/>
<feBlend mode="normal" in="SourceGraphic" in2="effect1_dropShadow_25_10044" result="shape"/>
</filter>
<filter id="filter1_d_25_10044" x="172" y="11.5" width="32" height="32" filterUnits="userSpaceOnUse" color-interpolation-filters="sRGB">
<feFlood flood-opacity="0" result="BackgroundImageFix"/>
<feColorMatrix in="SourceAlpha" type="matrix" values="0 0 0 0 0 0 0 0 0 0 0 0 0 0 0 0 0 0 127 0" result="hardAlpha"/>
<feOffset dy="4"/>
<feGaussianBlur stdDeviation="2"/>
<feComposite in2="hardAlpha" operator="out"/>
<feColorMatrix type="matrix" values="0 0 0 0 0 0 0 0 0 0 0 0 0 0 0 0 0 0 0.5 0"/>
<feBlend mode="normal" in2="BackgroundImageFix" result="effect1_dropShadow_25_10044"/>
<feBlend mode="normal" in="SourceGraphic" in2="effect1_dropShadow_25_10044" result="shape"/>
</filter>
</defs>
</svg>
