<svg width="1157" height="795" viewBox="0 0 1157 795" fill="none" xmlns="http://www.w3.org/2000/svg">
<path d="M5.72367 456.274C12.4911 444.055 18.8881 427.673 35.6123 432.154C43.5593 434.283 49.7344 446.129 49.2487 453.662C48.8457 459.909 50.5811 467.8 44.1332 471.69C39.0686 474.746 32.6683 474.312 28.6745 469.582C17.3328 456.149 38.2904 446.737 48.6826 448.792C62.8673 451.597 79.3042 486.937 66.9494 498.098C56.3564 507.668 49.3867 492.982 56.7858 484.272C67.1942 472.019 76.7683 471.63 88.8718 484.735C98.3223 494.968 95.4801 513.028 87.8549 522.529C86.2712 524.503 80.3438 538.315 78.9126 536.93C64.7901 523.266 89.81 503.134 103.713 505.996C119.687 509.285 135.813 512.795 146.371 525.439C152.049 532.238 162.529 556.563 160.515 547.936C157.995 537.141 155.576 522.327 160.05 511.575C161.382 508.376 165.386 498.057 162.005 508.073C158.523 518.389 155.216 527.394 153.799 537.637C153.484 539.916 156.446 543.15 157.457 545.083C158.313 546.721 151.649 544.617 150.853 544.534C143.977 543.82 137.693 546.468 131.802 549.759C126.544 552.697 120.526 558.21 116.561 556.25" stroke="#00ADB5" stroke-opacity="0.2" stroke-width="4" stroke-linecap="round" stroke-linejoin="round"/>
<path d="M1092.24 750.397C1100.2 746.281 1108.32 740.898 1115.43 735.394C1119.24 732.449 1123.34 729.923 1127.03 726.875C1127.54 726.445 1128.82 724.419 1129.59 725.083C1130.81 726.131 1131.99 727.95 1132.74 729.366C1134.9 733.479 1137.88 737.606 1140.94 741.069C1143.36 743.817 1145.33 746.137 1147.18 749.33C1148.18 751.076 1150.69 753.459 1150.51 755.4C1150.01 760.813 1144.95 765.826 1141.48 769.367C1136.38 774.57 1131.38 779.8 1125.32 783.799C1121.55 786.28 1117.31 787.59 1113.46 789.811C1109.92 791.857 1110.21 791.583 1106.84 788.609C1103.51 785.68 1101.45 782.502 1099.2 778.595C1098.02 776.562 1095.92 774.806 1094.29 773.125C1093.06 771.853 1092.61 769.68 1091.94 768.079C1091.24 766.399 1091.3 761.582 1089.77 760.579C1088.26 759.595 1086.52 757.434 1086.94 755.497C1087.29 753.916 1100.45 744.647 1089.46 754.994" stroke="#00ADB5" stroke-opacity="0.5" stroke-linecap="round" stroke-linejoin="round"/>
<path d="M1088.05 757.941C1091.05 759.396 1093.96 761.485 1096.93 762.85C1097.91 763.304 1099.6 763.219 1100.39 763.84C1102.54 765.52 1108.76 764.5 1111.4 764.742C1114.38 765.016 1122.55 769.104 1123.64 764.079C1125.7 754.634 1128.01 745.231 1130.06 735.824C1130.44 734.047 1129.92 732.292 1130.27 730.669C1131.35 725.729 1126.61 728.846 1125.01 729.772" stroke="#00ADB5" stroke-opacity="0.5" stroke-linecap="round" stroke-linejoin="round"/>
<path d="M721.805 69.8232C739.977 61.2806 755.445 48.7889 770.904 36.9114C783.054 27.5763 795.727 18.2772 808.864 9.92429C811.456 8.27609 815.233 5.12037 818.313 5.94018C821.365 6.75256 822.774 9.73711 825.052 11.3428C830.662 15.2971 835.496 20.3555 839.88 25.2497C844.705 30.6374 835.748 34.9214 829.948 39.4521C823.361 44.5985 817.022 49.8548 809.957 54.5361C803.242 58.9859 797.545 64.7205 791.285 69.6078C781.743 77.0561 772.702 84.8607 763.184 92.3128C757.519 96.749 751.196 100.561 745.701 105.113C743.775 106.708 741.917 108.739 739.759 110.129C738.026 111.246 736.31 107.891 735.834 107.276C732.055 102.396 725.553 99.4961 721.903 94.3579C719.608 91.1273 718.341 86.965 715.454 84.1034C714.076 82.7373 710.577 79.7068 712.636 77.2552C714.738 74.7521 719.951 73.0818 722.941 71.123C725.271 69.596 728.107 67.7154 730.68 66.5469C732.549 65.6978 734.457 64.3502 736.171 63.2848C740.684 60.4809 736.108 61.9759 733.154 63.1607" stroke="#00ADB5" stroke-opacity="0.5" stroke-linecap="round" stroke-linejoin="round"/>
<path d="M722.968 80.1045C732.743 84.1576 741.11 90.6701 748.27 97.2152C748.451 97.381 750.291 98.276 749.929 98.7241C749.23 99.5891 742.916 96.7445 742.315 96.456" stroke="#00ADB5" stroke-opacity="0.5" stroke-linecap="round" stroke-linejoin="round"/>
<path d="M734.432 71.3787C742.673 72.3862 747.228 75.5492 753.547 78.7716C756.362 80.207 759.258 81.4626 761.715 83.246C762.869 84.0834 763.608 85.2736 764.653 86.199C766.086 87.4673 759.848 85.0785 759.112 84.8053" stroke="#00ADB5" stroke-opacity="0.5" stroke-linecap="round" stroke-linejoin="round"/>
<path d="M747.621 64.1323C752.977 67.7902 758.373 71.3848 763.941 74.8479C766.056 76.1635 768.505 77.3141 770.262 78.9457C773.383 81.8422 769.291 78.0885 767.867 77.059" stroke="#00ADB5" stroke-opacity="0.5" stroke-linecap="round" stroke-linejoin="round"/>
<path d="M756.544 59.0745C760.662 60.7406 764.987 62.3179 768.324 64.813C769.693 65.8364 770.77 67.1028 772.257 68.0264C774.089 69.1641 775.639 70.5573 777.489 71.6553C780.125 73.219 780.484 73.7215 777.371 71.7372" stroke="#00ADB5" stroke-opacity="0.5" stroke-linecap="round" stroke-linejoin="round"/>
<path d="M768.19 51.5229C772.638 54.046 776.717 56.6574 780.273 59.9448C781.848 61.4007 783.037 63.1519 785.152 64.1673C787.089 65.0977 788.514 65.2696 786.32 63.6509" stroke="#00ADB5" stroke-opacity="0.5" stroke-linecap="round" stroke-linejoin="round"/>
<path d="M779.452 43.8948C783.384 46.0086 787.287 47.9032 790.251 50.861C791.608 52.215 792.603 53.8345 794.159 55.0492C797.321 57.5159 795.073 56.3456 792.769 54.6892" stroke="#00ADB5" stroke-opacity="0.5" stroke-linecap="round" stroke-linejoin="round"/>
<path d="M789.942 36.1138C795.324 40.0764 799.616 44.9429 805.016 48.8474C808.653 51.4765 803.515 47.1864 802.685 46.415" stroke="#00ADB5" stroke-opacity="0.5" stroke-linecap="round" stroke-linejoin="round"/>
<path d="M802.353 29.4719C807.659 27.2377 813.198 24.6625 816.492 20.286C817.4 19.0791 818.504 17.9934 818.99 16.6936C819.656 14.9086 819.469 15.6632 817.711 16.9669" stroke="#00ADB5" stroke-opacity="0.5" stroke-linecap="round" stroke-linejoin="round"/>
<path d="M809.742 34.1607C814.182 30.7083 819.135 26.9257 822.613 22.785C824.348 20.7198 827.471 18.0862 823.173 21.2737" stroke="#00ADB5" stroke-opacity="0.5" stroke-linecap="round" stroke-linejoin="round"/>
<path d="M821.76 39.0088C825.871 35.3953 829.547 32.0511 833.387 28.324C834.627 27.1198 838.143 25.3438 834.029 26.6498" stroke="#00ADB5" stroke-opacity="0.5" stroke-linecap="round" stroke-linejoin="round"/>
<path d="M819.07 37.7167C823.275 34.6433 828.041 31.0793 831.546 27.4005C832.481 26.4192 833.243 25.3573 834.114 24.3488C835.574 22.6596 835.58 23.1741 833.671 23.5446" stroke="#00ADB5" stroke-opacity="0.5" stroke-linecap="round" stroke-linejoin="round"/>
<path d="M732.581 84.2856C752.561 75.9016 759.636 58.4278 776.545 47.1003C778.601 45.7223 780.321 44.2541 782.642 43.1998C784.195 42.4947 786.055 42.0322 787.496 41.1911C788.375 40.678 795.769 35.7301 790.795 37.9892" stroke="#00ADB5" stroke-opacity="0.5" stroke-linecap="round" stroke-linejoin="round"/>
<path d="M724.314 80.7503C726.75 78.4127 728.904 76.4044 731.836 74.5827C732.317 74.284 733.012 74.1649 733.425 73.7915C734.244 73.0518 735.479 71.966 735.877 71.0856C737.447 67.6181 742.752 67.6326 745.849 65.6353C748.795 63.7352 751.642 61.8269 754.638 59.94C757.939 57.8612 759.566 56.1801 762.333 53.6802C764.875 51.3839 767.353 49.0714 770.012 46.8692C772.186 45.0676 775.458 43.2843 776.984 41.1193C778.706 38.6759 782.659 35.6575 785.829 35.7196C786.918 35.7409 794.54 38.627 789.551 36.7946" stroke="#00ADB5" stroke-opacity="0.5" stroke-linecap="round" stroke-linejoin="round"/>
<path d="M740.469 86.9875C755.678 79.2866 765.498 65.1106 776.595 53.99C780.682 49.894 786.13 46.8662 790.376 42.8158C792.191 41.0833 795.954 39.0378 791.842 39.5245" stroke="#00ADB5" stroke-opacity="0.5" stroke-linecap="round" stroke-linejoin="round"/>
<path d="M745.073 90.1758C758.982 82.2843 768.981 69.3801 779.769 58.8332C784.677 54.035 789.448 49.163 794.404 44.394C796.664 42.2197 800.3 40.6124 795.574 43.1088" stroke="#00ADB5" stroke-opacity="0.5" stroke-linecap="round" stroke-linejoin="round"/>
<path d="M749.264 96.3165C758.271 89.0384 765.783 81.4317 773.453 73.3207C778.117 68.3888 782.31 62.9625 787.616 58.3979C790.66 55.7789 793.133 52.8344 795.945 50.1042C797.078 49.0044 797.926 47.7759 799.085 46.6812C801.697 44.2154 799.812 46.3927 798.041 47.77" stroke="#00ADB5" stroke-opacity="0.5" stroke-linecap="round" stroke-linejoin="round"/>
<path d="M750.785 98.8937C755.27 95.2575 761.617 91.5302 764.888 87.0985C766.075 85.4895 769.001 81.5983 770.828 80.4906C773.242 79.0264 774.671 76.3264 776.531 74.5207C778.468 72.6404 780.364 70.8048 782.434 68.9908C784.376 67.2897 785.299 64.5824 787.623 63.0453C790.212 61.3329 791.686 58.9662 793.831 57.0279C795.688 55.3502 799.042 53.4517 801.246 52.0821C802.468 51.3233 803.379 50.3733 804.73 49.7598C807.468 48.5163 805.709 49.1928 803.334 49.3882" stroke="#00ADB5" stroke-opacity="0.5" stroke-linecap="round" stroke-linejoin="round"/>
<path d="M801.86 30.7014C805.104 31.0359 809.158 31.0611 812 32.1851C813.834 32.9105 815.414 33.6682 812.074 32.3472" stroke="#00ADB5" stroke-opacity="0.5" stroke-linecap="round" stroke-linejoin="round"/>
<path d="M805.957 25.8247C810.586 26.2927 813.799 27.0385 817.404 28.6421C819.761 29.6906 819.404 29.3671 816.934 28.3805" stroke="#00ADB5" stroke-opacity="0.5" stroke-linecap="round" stroke-linejoin="round"/>
<path d="M812.37 20.6492C816.207 22.0428 819.887 23.7028 823.896 24.8413C826.255 25.5108 824.957 25.5909 823.139 25.0597" stroke="#00ADB5" stroke-opacity="0.5" stroke-linecap="round" stroke-linejoin="round"/>
<path d="M816.17 16.6614C820.256 17.756 824.006 18.8817 827.694 20.4212C829.376 21.1233 827.727 21.3655 826.458 20.7871" stroke="#00ADB5" stroke-opacity="0.5" stroke-linecap="round" stroke-linejoin="round"/>
<path d="M804.191 28.8885C807.877 25.4137 811.551 22.1008 814.957 18.5808C815.924 17.5808 821.752 11.9634 819.177 14.7927" stroke="#00ADB5" stroke-opacity="0.5" stroke-linecap="round" stroke-linejoin="round"/>
<path d="M806.849 33.9664C811.5 30.4829 818.159 25.7873 820.151 21.1381C820.737 19.7698 821.793 18.3497 823.198 17.2964C824.622 16.2281 826.035 15.6595 823.883 17.4322" stroke="#00ADB5" stroke-opacity="0.5" stroke-linecap="round" stroke-linejoin="round"/>
<path d="M803.468 34.2446C808.526 29.8296 812.749 26.7699 815.969 21.6683C816.805 20.3434 817.709 19.2217 818.933 18.1157C820.23 16.9437 822.02 15.7817 819.535 17.898" stroke="#00ADB5" stroke-opacity="0.5" stroke-linecap="round" stroke-linejoin="round"/>
<path d="M819.969 34.2922C821.9 35.1192 823.847 35.8679 825.884 36.5079C826.725 36.7722 825.72 36.1909 825.357 36.1189" stroke="#00ADB5" stroke-opacity="0.5" stroke-linecap="round" stroke-linejoin="round"/>
<path d="M824.749 28.6025C824.876 28.6828 832.262 33.3983 830.988 32.3048" stroke="#00ADB5" stroke-opacity="0.5" stroke-linecap="round" stroke-linejoin="round"/>
<path d="M829.885 26.0178C831.493 27.2107 836.445 30.6714 834.678 29.6229" stroke="#00ADB5" stroke-opacity="0.5" stroke-linecap="round" stroke-linejoin="round"/>
<path d="M817.245 36.7861C820.544 34.2147 827.711 29.0492 829.795 25.431C830.616 24.0051 833.755 21.9395 830.771 24.1075" stroke="#00ADB5" stroke-opacity="0.5" stroke-linecap="round" stroke-linejoin="round"/>
<path d="M817.528 37.4113C817.787 37.5622 822.81 41.8712 824.363 39.3352C825.155 38.0408 826.187 36.3548 827.806 35.5089C830.647 34.0248 831.66 30.2392 834.539 28.9319C837.805 27.4487 837.78 25.5776 834.98 25.2265C833.879 25.0886 835.027 23.1859 833.827 23.4598C832.728 23.7105 832.2 23.4536 830.966 23.7672" stroke="#00ADB5" stroke-opacity="0.5" stroke-linecap="round" stroke-linejoin="round"/>
<path d="M801.576 30.0765C803.116 32.8683 803.334 33.9186 806.321 34.8204C807.127 35.0638 808.306 34.469 808.917 34.6609C810.125 35.0406 812.656 34.7679 813.745 33.7112C815.934 31.5864 816.813 30.2748 819.922 28.7833C821.883 27.8424 823.618 25.9461 824.678 24.4166C825.843 22.7357 827.711 21.3581 828.929 19.6652C829.448 18.9444 826.259 17.5945 826.39 16.4332C826.427 16.1039 822.355 16.5502 821.716 16.3493C820.941 16.106 820.631 15.6756 820.334 15.0218C819.9 14.067 818.703 15.4469 817.143 15.7167" stroke="#00ADB5" stroke-opacity="0.5" stroke-linecap="round" stroke-linejoin="round"/>
<path d="M728.409 75.8735C732.84 76.77 736.621 78.1421 740.507 79.6943C743.88 81.0419 747.838 81.518 751.196 82.8143C753.586 83.7372 755.857 86.2009 757.493 87.8029C758.038 88.3366 758.429 88.8494 758.781 89.4805C759.587 90.9282 759.048 87.2703 758.997 86.8685" stroke="#00ADB5" stroke-opacity="0.5" stroke-linecap="round" stroke-linejoin="round"/>
<path d="M777.052 42.4707C778.184 43.4107 782.547 48.8115 782.148 44.4294" stroke="#00ADB5" stroke-opacity="0.5" stroke-linecap="round" stroke-linejoin="round"/>
</svg>
