<svg width="685" height="412" viewBox="0 0 685 412" fill="none" xmlns="http://www.w3.org/2000/svg">
<path d="M620.241 367.397C628.201 363.281 636.317 357.898 643.434 352.394C647.242 349.449 651.34 346.923 655.025 343.875C655.544 343.445 656.823 341.419 657.595 342.083C658.812 343.131 659.992 344.95 660.736 346.366C662.899 350.479 665.883 354.606 668.939 358.069C671.364 360.817 673.333 363.137 675.176 366.33C676.184 368.076 678.688 370.459 678.508 372.4C678.008 377.813 672.95 382.826 669.479 386.367C664.379 391.57 659.382 396.8 653.316 400.799C649.554 403.28 645.313 404.59 641.465 406.811C637.92 408.857 638.211 408.583 634.836 405.609C631.511 402.68 629.454 399.502 627.198 395.595C626.024 393.562 623.925 391.806 622.292 390.125C621.055 388.853 620.606 386.68 619.939 385.079C619.24 383.399 619.302 378.582 617.768 377.579C616.264 376.595 614.519 374.434 614.942 372.497C615.286 370.916 628.454 361.647 617.457 371.994" stroke="#00ADB5" stroke-opacity="0.5" stroke-linecap="round" stroke-linejoin="round"/>
<path d="M616.051 374.941C619.047 376.396 621.962 378.485 624.928 379.85C625.914 380.304 627.597 380.219 628.392 380.84C630.544 382.521 636.761 381.5 639.401 381.742C642.382 382.016 650.549 386.104 651.644 381.079C653.702 371.634 656.006 362.232 658.056 352.824C658.444 351.047 657.921 349.292 658.274 347.669C659.351 342.729 654.611 345.847 653.008 346.772" stroke="#00ADB5" stroke-opacity="0.5" stroke-linecap="round" stroke-linejoin="round"/>
<path d="M426.805 69.8232C444.977 61.2806 460.445 48.7889 475.904 36.9114C488.054 27.5763 500.727 18.2772 513.864 9.92429C516.456 8.27609 520.233 5.12037 523.313 5.94018C526.365 6.75256 527.774 9.73711 530.052 11.3428C535.662 15.2971 540.496 20.3555 544.88 25.2497C549.705 30.6374 540.748 34.9214 534.948 39.4521C528.361 44.5985 522.022 49.8548 514.957 54.5361C508.242 58.9859 502.545 64.7205 496.285 69.6078C486.743 77.0561 477.702 84.8607 468.184 92.3128C462.519 96.749 456.196 100.561 450.701 105.113C448.775 106.708 446.917 108.739 444.759 110.129C443.026 111.246 441.31 107.891 440.834 107.276C437.055 102.396 430.553 99.4961 426.903 94.3579C424.608 91.1273 423.341 86.965 420.454 84.1034C419.076 82.7373 415.577 79.7068 417.636 77.2552C419.738 74.7521 424.951 73.0818 427.941 71.123C430.271 69.596 433.107 67.7154 435.68 66.5469C437.549 65.6978 439.457 64.3502 441.171 63.2848C445.684 60.4809 441.108 61.9759 438.154 63.1607" stroke="#00ADB5" stroke-opacity="0.5" stroke-linecap="round" stroke-linejoin="round"/>
<path d="M427.968 80.1045C437.743 84.1576 446.11 90.6701 453.27 97.2152C453.451 97.381 455.291 98.276 454.929 98.7241C454.23 99.5891 447.916 96.7445 447.315 96.456" stroke="#00ADB5" stroke-opacity="0.5" stroke-linecap="round" stroke-linejoin="round"/>
<path d="M439.432 71.3784C447.673 72.3859 452.228 75.549 458.547 78.7714C461.362 80.2067 464.258 81.4624 466.715 83.2457C467.869 84.0832 468.608 85.2734 469.653 86.1987C471.086 87.467 464.848 85.0782 464.112 84.805" stroke="#00ADB5" stroke-opacity="0.5" stroke-linecap="round" stroke-linejoin="round"/>
<path d="M452.621 64.1323C457.977 67.7902 463.373 71.3848 468.941 74.8479C471.056 76.1635 473.505 77.3141 475.262 78.9457C478.383 81.8422 474.291 78.0885 472.867 77.059" stroke="#00ADB5" stroke-opacity="0.5" stroke-linecap="round" stroke-linejoin="round"/>
<path d="M461.544 59.0747C465.662 60.7408 469.987 62.3181 473.324 64.8132C474.693 65.8367 475.77 67.103 477.257 68.0266C479.089 69.1644 480.639 70.5575 482.489 71.6556C485.125 73.2192 485.484 73.7217 482.371 71.7374" stroke="#00ADB5" stroke-opacity="0.5" stroke-linecap="round" stroke-linejoin="round"/>
<path d="M473.19 51.5229C477.638 54.046 481.717 56.6574 485.273 59.9448C486.848 61.4007 488.037 63.1519 490.152 64.1673C492.089 65.0977 493.514 65.2696 491.32 63.6509" stroke="#00ADB5" stroke-opacity="0.5" stroke-linecap="round" stroke-linejoin="round"/>
<path d="M484.452 43.895C488.384 46.0088 492.287 47.9034 495.251 50.8612C496.608 52.2152 497.603 53.8348 499.159 55.0495C502.321 57.5161 500.073 56.3459 497.769 54.6895" stroke="#00ADB5" stroke-opacity="0.5" stroke-linecap="round" stroke-linejoin="round"/>
<path d="M494.942 36.1138C500.324 40.0764 504.616 44.9429 510.016 48.8474C513.653 51.4765 508.515 47.1864 507.685 46.415" stroke="#00ADB5" stroke-opacity="0.5" stroke-linecap="round" stroke-linejoin="round"/>
<path d="M507.353 29.4719C512.659 27.2377 518.198 24.6625 521.492 20.286C522.4 19.0791 523.504 17.9934 523.99 16.6936C524.656 14.9086 524.469 15.6632 522.711 16.9669" stroke="#00ADB5" stroke-opacity="0.5" stroke-linecap="round" stroke-linejoin="round"/>
<path d="M514.742 34.1607C519.182 30.7083 524.135 26.9257 527.613 22.785C529.348 20.7198 532.471 18.0862 528.173 21.2737" stroke="#00ADB5" stroke-opacity="0.5" stroke-linecap="round" stroke-linejoin="round"/>
<path d="M526.76 39.009C530.871 35.3956 534.547 32.0514 538.387 28.3243C539.627 27.1201 543.143 25.3441 539.029 26.6501" stroke="#00ADB5" stroke-opacity="0.5" stroke-linecap="round" stroke-linejoin="round"/>
<path d="M524.07 37.7167C528.275 34.6433 533.041 31.0793 536.546 27.4005C537.481 26.4192 538.243 25.3573 539.114 24.3488C540.574 22.6596 540.58 23.1741 538.671 23.5446" stroke="#00ADB5" stroke-opacity="0.5" stroke-linecap="round" stroke-linejoin="round"/>
<path d="M437.581 84.2856C457.561 75.9016 464.636 58.4278 481.545 47.1003C483.601 45.7223 485.321 44.2541 487.642 43.1998C489.195 42.4947 491.055 42.0322 492.496 41.1911C493.375 40.678 500.769 35.7301 495.795 37.9892" stroke="#00ADB5" stroke-opacity="0.5" stroke-linecap="round" stroke-linejoin="round"/>
<path d="M429.314 80.7505C431.75 78.413 433.904 76.4046 436.836 74.583C437.317 74.2842 438.012 74.1651 438.425 73.7917C439.244 73.052 440.479 71.9663 440.877 71.0858C442.447 67.6183 447.752 67.6328 450.849 65.6355C453.795 63.7355 456.642 61.8272 459.638 59.9403C462.939 57.8614 464.566 56.1803 467.333 53.6804C469.875 51.3841 472.353 49.0717 475.012 46.8695C477.186 45.0679 480.458 43.2845 481.984 41.1195C483.706 38.6761 487.659 35.6578 490.829 35.7198C491.918 35.7412 499.54 38.6272 494.551 36.7948" stroke="#00ADB5" stroke-opacity="0.5" stroke-linecap="round" stroke-linejoin="round"/>
<path d="M445.469 86.9875C460.678 79.2866 470.498 65.1106 481.595 53.99C485.682 49.894 491.13 46.8662 495.376 42.8158C497.191 41.0833 500.954 39.0378 496.842 39.5245" stroke="#00ADB5" stroke-opacity="0.5" stroke-linecap="round" stroke-linejoin="round"/>
<path d="M450.073 90.1756C463.982 82.284 473.981 69.3799 484.769 58.833C489.677 54.0347 494.448 49.1628 499.404 44.3938C501.664 42.2195 505.3 40.6121 500.574 43.1085" stroke="#00ADB5" stroke-opacity="0.5" stroke-linecap="round" stroke-linejoin="round"/>
<path d="M454.264 96.3163C463.271 89.0381 470.783 81.4314 478.453 73.3205C483.117 68.3886 487.31 62.9623 492.616 58.3977C495.66 55.7787 498.133 52.8341 500.945 50.104C502.078 49.0041 502.926 47.7756 504.085 46.681C506.697 44.2152 504.812 46.3924 503.041 47.7697" stroke="#00ADB5" stroke-opacity="0.5" stroke-linecap="round" stroke-linejoin="round"/>
<path d="M455.785 98.8937C460.27 95.2575 466.617 91.5302 469.888 87.0985C471.075 85.4895 474.001 81.5983 475.828 80.4906C478.242 79.0264 479.671 76.3264 481.531 74.5207C483.468 72.6404 485.364 70.8048 487.434 68.9908C489.376 67.2897 490.299 64.5824 492.623 63.0453C495.212 61.3329 496.686 58.9662 498.831 57.0279C500.688 55.3502 504.042 53.4517 506.246 52.0821C507.468 51.3233 508.379 50.3733 509.73 49.7598C512.468 48.5163 510.709 49.1928 508.334 49.3882" stroke="#00ADB5" stroke-opacity="0.5" stroke-linecap="round" stroke-linejoin="round"/>
<path d="M506.86 30.7017C510.104 31.0361 514.158 31.0613 517 32.1854C518.834 32.9108 520.414 33.6684 517.074 32.3475" stroke="#00ADB5" stroke-opacity="0.5" stroke-linecap="round" stroke-linejoin="round"/>
<path d="M510.957 25.8247C515.586 26.2927 518.799 27.0385 522.404 28.6421C524.761 29.6906 524.404 29.3671 521.934 28.3805" stroke="#00ADB5" stroke-opacity="0.5" stroke-linecap="round" stroke-linejoin="round"/>
<path d="M517.37 20.6492C521.207 22.0428 524.887 23.7028 528.896 24.8413C531.255 25.5108 529.957 25.5909 528.139 25.0597" stroke="#00ADB5" stroke-opacity="0.5" stroke-linecap="round" stroke-linejoin="round"/>
<path d="M521.17 16.6614C525.256 17.756 529.006 18.8817 532.694 20.4212C534.376 21.1233 532.727 21.3655 531.458 20.7871" stroke="#00ADB5" stroke-opacity="0.5" stroke-linecap="round" stroke-linejoin="round"/>
<path d="M509.191 28.8885C512.877 25.4137 516.551 22.1008 519.957 18.5808C520.924 17.5808 526.752 11.9634 524.177 14.7927" stroke="#00ADB5" stroke-opacity="0.5" stroke-linecap="round" stroke-linejoin="round"/>
<path d="M511.849 33.9661C516.5 30.4826 523.159 25.787 525.151 21.1378C525.737 19.7696 526.793 18.3494 528.198 17.2961C529.622 16.2278 531.035 15.6592 528.883 17.4319" stroke="#00ADB5" stroke-opacity="0.5" stroke-linecap="round" stroke-linejoin="round"/>
<path d="M508.468 34.2446C513.526 29.8296 517.749 26.7699 520.969 21.6683C521.805 20.3434 522.709 19.2217 523.933 18.1157C525.23 16.9437 527.02 15.7817 524.535 17.898" stroke="#00ADB5" stroke-opacity="0.5" stroke-linecap="round" stroke-linejoin="round"/>
<path d="M524.969 34.292C526.9 35.119 528.847 35.8677 530.884 36.5077C531.725 36.772 530.72 36.1907 530.357 36.1187" stroke="#00ADB5" stroke-opacity="0.5" stroke-linecap="round" stroke-linejoin="round"/>
<path d="M529.749 28.6025C529.876 28.6828 537.262 33.3983 535.988 32.3048" stroke="#00ADB5" stroke-opacity="0.5" stroke-linecap="round" stroke-linejoin="round"/>
<path d="M534.885 26.0181C536.493 27.2109 541.445 30.6717 539.678 29.6231" stroke="#00ADB5" stroke-opacity="0.5" stroke-linecap="round" stroke-linejoin="round"/>
<path d="M522.245 36.7861C525.544 34.2147 532.711 29.0492 534.795 25.431C535.616 24.0051 538.755 21.9395 535.771 24.1075" stroke="#00ADB5" stroke-opacity="0.5" stroke-linecap="round" stroke-linejoin="round"/>
<path d="M522.528 37.4111C522.787 37.562 527.81 41.8709 529.363 39.3349C530.155 38.0405 531.187 36.3546 532.806 35.5086C535.647 34.0246 536.66 30.239 539.539 28.9316C542.805 27.4485 542.78 25.5774 539.98 25.2263C538.879 25.0883 540.027 23.1857 538.827 23.4596C537.728 23.7102 537.2 23.4534 535.966 23.7669" stroke="#00ADB5" stroke-opacity="0.5" stroke-linecap="round" stroke-linejoin="round"/>
<path d="M506.576 30.0762C508.116 32.868 508.334 33.9184 511.321 34.8202C512.127 35.0636 513.306 34.4688 513.917 34.6606C515.125 35.0403 517.656 34.7677 518.745 33.711C520.934 31.5862 521.813 30.2745 524.922 28.7831C526.883 27.8422 528.618 25.9459 529.678 24.4164C530.843 22.7354 532.711 21.3579 533.929 19.665C534.448 18.9441 531.259 17.5942 531.39 16.433C531.427 16.1037 527.355 16.5499 526.716 16.3491C525.941 16.1058 525.631 15.6753 525.334 15.0216C524.9 14.0667 523.703 15.4466 522.143 15.7164" stroke="#00ADB5" stroke-opacity="0.5" stroke-linecap="round" stroke-linejoin="round"/>
<path d="M433.409 75.8735C437.84 76.77 441.621 78.1421 445.507 79.6943C448.88 81.0419 452.838 81.518 456.196 82.8143C458.586 83.7372 460.857 86.2009 462.493 87.8029C463.038 88.3366 463.429 88.8494 463.781 89.4805C464.587 90.9282 464.048 87.2703 463.997 86.8685" stroke="#00ADB5" stroke-opacity="0.5" stroke-linecap="round" stroke-linejoin="round"/>
<path d="M482.052 42.4707C483.184 43.4107 487.547 48.8115 487.148 44.4294" stroke="#00ADB5" stroke-opacity="0.5" stroke-linecap="round" stroke-linejoin="round"/>
<path d="M5.72367 94.274C12.4911 82.0548 18.8881 65.6725 35.6123 70.1538C43.5593 72.2832 49.7344 84.1295 49.2487 91.6615C48.8457 97.9093 50.5811 105.8 44.1332 109.69C39.0686 112.746 32.6683 112.312 28.6745 107.582C17.3328 94.1489 38.2904 84.7371 48.6826 86.7922C62.8673 89.5972 79.3042 124.937 66.9494 136.098C56.3564 145.668 49.3867 130.982 56.7858 122.272C67.1942 110.019 76.7683 109.63 88.8718 122.735C98.3223 132.968 95.4801 151.028 87.8549 160.529C86.2712 162.503 80.3438 176.315 78.9126 174.93C64.7901 161.266 89.81 141.134 103.713 143.996C119.687 147.285 135.813 150.795 146.371 163.439C152.049 170.238 162.529 194.563 160.515 185.936C157.995 175.141 155.576 160.327 160.05 149.575C161.382 146.376 165.386 136.057 162.005 146.073C158.523 156.389 155.216 165.394 153.799 175.637C153.484 177.916 156.446 181.15 157.457 183.083C158.313 184.721 151.649 182.617 150.853 182.534C143.977 181.82 137.693 184.468 131.802 187.759C126.544 190.697 120.526 196.21 116.561 194.25" stroke="#00ADB5" stroke-opacity="0.2" stroke-width="4" stroke-linecap="round" stroke-linejoin="round"/>
</svg>
